# xmcd CD database file
#
# Track frame offsets:
#	150
#	16054
#	30422
#	48009
#	63178
#	77934
#	93350
#	106382
#	120434
#	134039
#	147527
#	167140
#	187244
#	217855
#	245579
#
# Disc length: 3691 seconds
#
# Revision: 0
# Processed by: cddbd v1.5.2PL0 Copyright (c) Steve Scherf et al.
# Submitted via: CDex 1.51
#
DISCID=cc0e690f
DTITLE=Al Cohn - From A To Z and East Coast West Coast Scene
DYEAR=1956
DGENRE=Jazz
TTITLE0=Mediolistic
TTITLE1=Crimea River
TTITLE2=A New Moan
TTITLE3=A Moment's Notice
TTITLE4=My Blues
TTITLE5=Sandy's Swing
TTITLE6=Somebody Loves  Me
TTITLE7=More Bread
TTITLE8=Sherm's Terms
TTITLE9=From A To Z
TTITLE10=East Of The Sun ( And West Of The Moon )
TTITLE11=Tenor For Two Please, Jack
TTITLE12=Inside Out
TTITLE13=Autumn Leaves
TTITLE14=Serenade For Kathy
EXTD=YEAR: 1956
EXTT0=
EXTT1=
EXTT2=
EXTT3=
EXTT4=
EXTT5=
EXTT6=
EXTT7=
EXTT8=
EXTT9=
EXTT10=
EXTT11=
EXTT12=
EXTT13=
EXTT14=
PLAYORDER=
